#N canvas 188 37 1377 856 10;
#X obj 224 136 oggread~;
#X obj 227 -22 bng 15 250 50 0 empty empty empty 17 7 0 10 -262144
-1 -1;
#X obj 226 10 openpanel;
#X msg 225 39 open \$1;
#X msg 302 75 start;
#X msg 242 80 stop;
#X obj 674 25 vsl 15 128 0 100 0 0 empty empty empty 0 -9 0 10 -262144
-1 -1 635 1;
#X obj 224 332 expr~ $v1*min(1 \, 2*(1-$v3))+$v2*min(1 \, 2*$v3);
#X floatatom 544 246 5 0 0 0 - - -;
#X obj 543 269 sig~;
#X obj 543 126 tgl 15 0 empty empty empty 17 7 0 10 -262144 -1 -1 1
1;
#X obj 544 220 * 0.01;
#X obj 543 186 random;
#X obj 263 421 lop~ 3000;
#X floatatom 688 187 5 0 0 0 - - -;
#X obj 542 341 expr 30 * (120 - $f1);
#X obj 262 455 *~;
#X floatatom 393 468 5 0 0 0 - - -;
#X obj 392 435 expr (100 - $f1) * 0.01;
#X obj 287 214 r tuner;
#X obj 673 217 s tuner;
#X obj 694 -34 inlet;
#X obj 543 154 metro 160;
#X obj 392 411 r tuner;
#X text 224 -61 Add radio noise according to how "in tune" a station
is.;
#X text 692 -57 1-100 "in Tune";
#X obj 240 272 pink~;
#X obj 357 251 noise~;
#X obj 423 235 *~ 40;
#X obj 425 269 clip~ -0.7 0.7;
#X obj 357 275 *~ 0.4;
#X obj 241 305 *~ 0.01;
#X obj 287 249 * 0.04;
#X obj 177 377 hilbert~;
#X obj 262 493 dac~;
#X text 174 331 Mixer;
#X obj 543 95 loadbang;
#X obj 769 -41 loadbang;
#X text 492 0 Then Adjust the slider --->;
#X text 251 -23 Click here and select an OGG format music file.;
#X msg 716 -2 5;
#X msg 767 -5 \; pd dsp 1;
#X connect 0 0 7 0;
#X connect 0 0 28 0;
#X connect 1 0 2 0;
#X connect 2 0 3 0;
#X connect 3 0 0 0;
#X connect 3 0 4 0;
#X connect 4 0 0 0;
#X connect 5 0 0 0;
#X connect 6 0 12 1;
#X connect 6 0 14 0;
#X connect 6 0 15 0;
#X connect 6 0 20 0;
#X connect 7 0 33 0;
#X connect 7 0 13 0;
#X connect 8 0 9 0;
#X connect 9 0 7 2;
#X connect 10 0 22 0;
#X connect 11 0 8 0;
#X connect 12 0 11 0;
#X connect 13 0 16 0;
#X connect 15 0 13 1;
#X connect 16 0 34 0;
#X connect 18 0 16 1;
#X connect 18 0 17 0;
#X connect 19 0 32 0;
#X connect 21 0 6 0;
#X connect 22 0 12 0;
#X connect 23 0 18 0;
#X connect 26 0 31 0;
#X connect 27 0 30 0;
#X connect 28 0 29 0;
#X connect 29 0 7 1;
#X connect 30 0 7 1;
#X connect 31 0 7 0;
#X connect 32 0 31 1;
#X connect 33 0 13 0;
#X connect 36 0 10 0;
#X connect 37 0 40 0;
#X connect 37 0 41 0;
#X connect 40 0 6 0;
