#N canvas 188 37 1377 856 10;
#X obj 224 136 oggread~;
#X obj 227 -22 bng 15 250 50 0 empty empty empty 17 7 0 10 -262144
-1 -1;
#X obj 226 10 openpanel;
#X msg 225 39 open \$1;
#X msg 302 75 start;
#X msg 242 80 stop;
#X obj 692 18 vsl 15 128 2 100 0 0 empty empty empty 0 -9 0 10 -262144
-1 -1 1400 1;
#X obj 224 332 expr~ $v1*min(1 \, 2*(1-$v3))+$v2*min(1 \, 2*$v3);
#X obj 278 512 dac~;
#X floatatom 544 246 5 0 0 0 - - -;
#X obj 543 269 sig~;
#X obj 541 106 tgl 15 0 empty empty empty 17 7 0 10 -262144 -1 -1 1
1;
#X obj 544 220 * 0.01;
#X obj 543 186 random;
#X obj 284 403 lop~ 3000;
#X floatatom 708 165 5 0 0 0 - - -;
#X obj 542 341 expr 30 * (120 - $f1);
#X obj 283 454 *~;
#X floatatom 465 488 5 0 0 0 - - -;
#X obj 471 417 expr (100 - $f1) * 0.01;
#X obj 240 272 noise~;
#X obj 287 214 r tuner;
#X obj 693 195 s tuner;
#X obj 287 249 * 0.01;
#X obj 241 304 *~ 0.001;
#X obj 231 371 hip~ 200;
#X obj 693 -36 inlet;
#X obj 292 134 inlet~;
#X obj 405 223 *~ 40;
#X obj 407 257 clip~ -0.8 0.8;
#X obj 543 154 metro 160;
#X obj 324 509 outlet~;
#X obj 471 393 r tuner;
#X text 224 -61 Add radio noise according to how "in tune" a station
is.;
#X text 692 -57 1-100 "in Tune";
#X connect 0 0 7 0;
#X connect 0 0 28 0;
#X connect 1 0 2 0;
#X connect 2 0 3 0;
#X connect 3 0 0 0;
#X connect 4 0 0 0;
#X connect 5 0 0 0;
#X connect 6 0 13 1;
#X connect 6 0 15 0;
#X connect 6 0 16 0;
#X connect 6 0 22 0;
#X connect 7 0 25 0;
#X connect 9 0 10 0;
#X connect 10 0 7 2;
#X connect 11 0 30 0;
#X connect 12 0 9 0;
#X connect 13 0 12 0;
#X connect 14 0 17 0;
#X connect 16 0 14 1;
#X connect 17 0 8 0;
#X connect 19 0 17 1;
#X connect 19 0 18 0;
#X connect 20 0 24 0;
#X connect 21 0 23 0;
#X connect 23 0 24 1;
#X connect 24 0 7 0;
#X connect 25 0 14 0;
#X connect 26 0 6 0;
#X connect 28 0 29 0;
#X connect 29 0 7 1;
#X connect 30 0 13 0;
#X connect 32 0 19 0;
