#N canvas 113 187 990 576 10;
#N canvas 691 228 593 372 echomode 1;
#X obj 126 138 *~;
#X text 265 1 Enable to Play back microphone audio with delay.;
#X obj 71 62 adc~ 1;
#X obj 157 6 bng 15 250 50 0 empty empty empty 17 7 0 10 -262144 -1
-1;
#X obj 157 37 loadbang;
#X obj 154 107 tgl 15 0 empty empty empty 17 7 0 10 -262144 -1 -1 0.75
0.75;
#X obj 72 94 lop~ 600;
#X obj 156 72 metroplus 10000 2000;
#X obj 118 227 delwrite~ echo 2000;
#X obj 409 193 outlet~;
#X text 468 194 to DAC;
#X text 36 312 The metronome occasionally clears out buffer so as to
eliminate feedback loops.;
#X obj 70 156 sig~;
#X floatatom 45 130 5 0 0 0 - - -;
#X obj 443 26 inlet;
#X obj 444 51 == 1024;
#X obj 405 100 spigot~;
#X obj 443 75 tgl 15 0 echomode empty empty 17 7 0 10 -262144 -1 -1
0 1;
#X obj 407 142 hilbert~;
#X obj 316 51 delread~ echo 1000;
#X connect 0 0 8 0;
#X connect 2 0 6 0;
#X connect 3 0 4 0;
#X connect 4 0 7 0;
#X connect 5 0 0 1;
#X connect 6 0 0 0;
#X connect 7 0 5 0;
#X connect 12 0 8 0;
#X connect 13 0 12 0;
#X connect 14 0 15 0;
#X connect 15 0 17 0;
#X connect 16 1 18 0;
#X connect 17 0 16 1;
#X connect 18 0 9 0;
#X connect 19 0 16 0;
#X restore 710 399 pd echomode;
#X obj 110 226 hsl 800 15 0 1024 0 0 dial dial empty -2 -8 0 10 -261234
-1 -1 73600 1;
#N canvas 67 338 1083 697 radios 1;
#X text 90 304 each radio abstraction gets set to read from a different
folder in the root directory \, and independently decides if it should
be outputting audio based on the curent frequency. They are initialized
with three values: folder name \, center frequency \, and signal strength.
The signal strength is used to determine how near the center freq the
dial must be before the station's volume starts to ramp up.;
#X obj 400 10 bng 15 250 50 0 empty reload Reload_Stations 22 7 0 10
-257985 -1 -1;
#X obj 505 263 outlet~;
#N canvas 35 298 883 718 initRadios 1;
#X msg 109 200 length;
#X obj 110 276 route symbol float;
#X obj 100 555 expr $f1 - $f2;
#X obj 32 325 bng 15 250 50 0 empty empty empty 17 7 0 10 -262144 -1
-1;
#X obj 94 418 *;
#X obj 60 324 bng 15 250 50 0 empty empty empty 17 7 0 10 -262144 -1
-1;
#X obj 267 487 random;
#X floatatom 100 603 5 0 0 0 - - -;
#X obj 109 245 coll /src/timetravel_radio/stations.txt;
#C restore;
#X obj 100 580 int;
#N canvas 736 48 652 783 initarray 0;
#X msg 69 145 \; stationlist resize 16;
#X msg 73 238 \; stationlist xlabel 1 1 3 6 9 12;
#X msg 74 283 \; stationlist ylabel 100 200 400 600 800 1000;
#X msg 74 329 \; stationlist yticks 100 100 1000;
#X msg 72 190 \; stationlist delete;
#X obj 66 70 t b b b b b b b;
#X obj 64 12 bng 15 250 50 0 empty empty empty 17 7 0 10 -262144 -1
-1;
#X obj 64 39 loadbang;
#X msg 74 371 \; stationlist xticks 1 1 16;
#X msg 67 103 \; stationlist bounds 1 1024 16 1;
#X obj 360 80 t b b b b b b b;
#X obj 358 22 bng 15 250 50 0 empty empty empty 17 7 0 10 -262144 -1
-1;
#X obj 358 49 loadbang;
#X msg 366 200 \; alradios delete;
#X msg 363 155 \; allradios resize 1024;
#X msg 368 339 \; allradios yticks 10 10 100;
#X msg 368 381 \; allradios xticks 100 100 1000;
#X msg 367 248 \; allradios xlabel 100 200 400 600 800;
#X msg 361 113 \; allradios bounds 1 100 1023 1;
#X msg 368 293 \; allradios ylabel 10 25 50 75;
#X connect 5 0 9 0;
#X connect 5 1 0 0;
#X connect 5 2 4 0;
#X connect 5 3 1 0;
#X connect 5 4 2 0;
#X connect 5 5 3 0;
#X connect 5 6 8 0;
#X connect 6 0 7 0;
#X connect 7 0 5 0;
#X connect 10 0 18 0;
#X connect 10 1 14 0;
#X connect 10 2 13 0;
#X connect 10 3 17 0;
#X connect 10 4 19 0;
#X connect 10 5 15 0;
#X connect 10 6 16 0;
#X connect 11 0 12 0;
#X connect 12 0 10 0;
#X restore 15 745 pd initarray;
#X obj 132 63 inlet;
#X obj 195 328 s stationcount;
#X obj 110 328 s foldername;
#X obj 101 633 s stationfreq;
#X obj 39 391 s count;
#X obj 476 145 r count;
#X obj 557 86 r foldername;
#X obj 111 472 random 20;
#X obj 111 524 s power;
#X symbolatom 560 278 10 0 0 0 - - -;
#X msg 476 204 set \$1;
#X obj 580 334 pack f s f f;
#X obj 762 144 r power;
#X msg 559 177 set \$1;
#X msg 648 186 set \$1;
#X msg 764 212 set \$1;
#X obj 587 221 t b b b b;
#X msg 254 199 next;
#X obj 442 260 bng 15 250 50 0 empty empty empty 17 7 0 10 -262144
-1 -1;
#X floatatom 492 279 5 0 0 0 - - -;
#X floatatom 734 278 5 0 0 0 - - -;
#X floatatom 656 279 5 0 0 0 - - -;
#X obj 649 143 r stationfreq;
#X obj 281 124 uzi;
#X obj 267 153 t b b;
#X obj 277 61 r stationcount;
#X obj 278 95 t b f;
#X obj 94 365 counter 1 100;
#X floatatom 353 95 5 0 0 0 - - -;
#X obj 580 390 outlet;
#X obj 601 361 print stations;
#X msg 11 125 \; allradios const 0;
#X obj 132 90 bng 15 250 50 0 empty empty empty 17 7 0 10 -262130 -1
-1;
#X msg 172 162 goto 1;
#X obj 339 166 s dial;
#X text 36 -16 Inputs: Bang to read directory listing. Outputs: Combine
dirname with semi-random station frequency and signal strength.;
#X text 502 63 Make sure all messages arrive before Packing \, BANG
all at once.;
#X obj 111 445 trigger bang bang;
#X obj 303 326 expr 1000 / $f1;
#X obj 111 499 + 17;
#X connect 0 0 8 0;
#X connect 0 0 5 0;
#X connect 1 0 3 0;
#X connect 1 0 13 0;
#X connect 1 1 12 0;
#X connect 1 1 49 0;
#X connect 2 0 9 0;
#X connect 3 0 38 0;
#X connect 4 0 2 0;
#X connect 4 0 48 0;
#X connect 5 0 38 2;
#X connect 6 0 2 1;
#X connect 7 0 14 0;
#X connect 8 0 1 0;
#X connect 9 0 7 0;
#X connect 11 0 43 0;
#X connect 16 0 21 0;
#X connect 17 0 24 0;
#X connect 18 0 50 0;
#X connect 20 0 22 1;
#X connect 21 0 30 0;
#X connect 22 0 40 0;
#X connect 22 0 41 0;
#X connect 23 0 26 0;
#X connect 24 0 20 0;
#X connect 25 0 32 0;
#X connect 26 0 31 0;
#X connect 27 0 30 0;
#X connect 27 1 20 0;
#X connect 27 2 32 0;
#X connect 27 3 31 0;
#X connect 28 0 8 0;
#X connect 29 0 27 0;
#X connect 30 0 22 0;
#X connect 31 0 22 3;
#X connect 32 0 22 2;
#X connect 33 0 25 0;
#X connect 34 0 35 0;
#X connect 34 1 45 0;
#X connect 35 0 29 0;
#X connect 35 1 28 0;
#X connect 36 0 37 0;
#X connect 36 0 39 0;
#X connect 37 0 34 0;
#X connect 37 1 34 1;
#X connect 38 0 15 0;
#X connect 38 0 4 0;
#X connect 43 0 42 0;
#X connect 43 0 0 0;
#X connect 43 0 44 0;
#X connect 44 0 8 0;
#X connect 48 0 18 0;
#X connect 48 1 6 0;
#X connect 49 0 4 1;
#X connect 49 0 6 1;
#X connect 50 0 19 0;
#X restore 401 42 pd initRadios;
#X obj 400 74 route 1 2 3 4 5 6 7 8 9 10 11 12 13 14 15 16 17 18 19
20;
#X obj 400 -20 loadbang;
#X obj 68 161 radio;
#X obj 137 162 radio;
#X obj 715 161 radio;
#X obj 425 161 radio;
#X obj 283 161 radio;
#X obj 210 162 radio;
#X obj 352 161 radio;
#X obj 500 161 radio;
#X obj 569 161 radio;
#X obj 642 161 radio;
#X obj 784 161 radio;
#X obj 857 161 radio;
#X connect 1 0 3 0;
#X connect 3 0 4 0;
#X connect 4 0 6 0;
#X connect 4 1 7 0;
#X connect 4 2 11 0;
#X connect 4 3 10 0;
#X connect 4 4 12 0;
#X connect 4 5 9 0;
#X connect 4 6 13 0;
#X connect 4 7 14 0;
#X connect 4 8 15 0;
#X connect 4 9 8 0;
#X connect 4 10 16 0;
#X connect 4 11 17 0;
#X connect 5 0 1 0;
#X connect 6 0 2 0;
#X connect 7 0 2 0;
#X connect 8 0 2 0;
#X connect 9 0 2 0;
#X connect 10 0 2 0;
#X connect 11 0 2 0;
#X connect 12 0 2 0;
#X connect 13 0 2 0;
#X connect 14 0 2 0;
#X connect 15 0 2 0;
#X connect 16 0 2 0;
#X connect 17 0 2 0;
#X restore 613 399 pd radios;
#N canvas 755 148 676 513 sensors 0;
#X obj 55 245 outlet;
#X obj 178 249 outlet;
#X obj 298 247 outlet;
#X text 38 272 dial reading;
#X text 298 272 to lights;
#X obj 144 187 hsl 400 15 0 1024 0 0 dial empty Tuner -2 -8 0 10 -260097
-1 -1 623 1;
#X obj 579 35 tgl 15 0 empty empty empty 17 7 0 10 -262144 -1 -1 0
1;
#X obj 576 10 power plug;
#X text 180 274 to volume?;
#X obj 489 40 bng 15 250 50 0 percusive percusive empty 17 7 0 10 -262144
-1 -1;
#X text 476 15 percussive;
#X floatatom 8 240 5 0 1023 2 freq - -;
#X msg 419 304 dec;
#X msg 467 318 inc;
#X floatatom 441 469 5 0 0 0 - - -;
#X obj 437 374 counter 1 10;
#X obj 226 107 f 0;
#X obj 229 139 expr $f1 + $f2;
#X msg 260 105 2;
#X msg 300 106 -2;
#X obj 215 46 key;
#X text 215 21 key 'a' or 's';
#X obj 216 70 select 115 97;
#X obj 57 204 int;
#X msg 487 67 \; reload 1;
#X obj 122 129 t b f;
#X connect 5 0 23 0;
#X connect 9 0 24 0;
#X connect 12 0 15 0;
#X connect 13 0 15 0;
#X connect 15 0 14 0;
#X connect 16 0 17 0;
#X connect 16 0 25 0;
#X connect 17 0 16 1;
#X connect 18 0 17 1;
#X connect 19 0 17 1;
#X connect 20 0 22 0;
#X connect 22 0 18 0;
#X connect 22 0 16 0;
#X connect 22 1 19 0;
#X connect 22 1 16 0;
#X connect 23 0 0 0;
#X connect 23 0 11 0;
#X connect 25 0 5 0;
#X connect 25 1 5 0;
#X restore 13 49 pd sensors;
#N canvas 883 254 376 505 init 1;
#X obj 166 56 loadbang;
#X msg 123 200 \; percusive 1;
#X msg 152 130 \; plugged 1;
#X msg 137 167 \; dial 500;
#X msg 166 94 \; pd dsp 1;
#X connect 0 0 4 0;
#X connect 0 0 3 0;
#X connect 0 0 1 0;
#X connect 0 0 2 0;
#X restore 14 15 pd init;
#X obj 713 476 dac~ 1;
#X obj 13 76 s dial;
#X obj 709 323 r dial;
#N canvas 0 22 450 278 (subpatch) 0;
#X array allradios 1024 float 1;
#A 0 0 0 95 0 0 0 0 0 0 0 0 0 0 0 0 0 0 0 4 9 14 19 23 28 33 38 42
47 52 57 61 66 71 76 80 85 90 95 100 95 90 85 80 76 71 66 61 57 52
47 42 38 33 28 23 19 14 9 4 0 0 0 0 0 0 0 0 0 0 0 0 0 0 0 0 0 0 0 0
0 0 0 0 0 0 0 0 0 0 0 0 0 0 0 0 0 0 0 0 0 0 5 10 15 20 25 30 35 40
45 50 55 60 65 70 75 80 85 90 95 100 95 90 85 80 75 70 65 60 55 50
45 40 35 30 25 20 15 10 5 0 0 0 0 0 0 0 0 0 0 0 0 0 0 0 0 0 0 0 0 0
0 0 0 0 0 0 0 0 0 0 0 0 0 0 0 0 0 0 0 0 0 0 0 0 0 0 0 0 0 0 3 7 10
14 17 21 25 28 32 35 39 42 46 50 53 57 60 64 67 71 75 78 82 85 89 92
96 100 96 92 89 85 82 78 75 71 67 64 60 57 53 50 46 42 39 35 32 28
25 21 17 14 10 7 3 0 0 0 0 0 0 0 0 0 0 0 0 0 0 0 0 0 0 0 2 5 8 11 13
16 19 22 25 27 30 33 36 38 41 44 47 50 52 55 58 61 63 66 69 72 75 77
80 83 86 88 91 94 97 100 97 94 91 88 86 83 80 77 75 72 69 66 63 61
58 55 52 50 47 44 41 2 5 8 11 13 16 19 22 25 27 30 33 36 38 41 44 47
50 52 55 58 61 63 66 69 72 75 77 80 83 86 88 91 94 97 100 97 94 91
88 86 83 80 77 75 72 69 66 63 61 58 55 52 50 47 44 41 38 36 33 30 27
25 22 19 16 13 11 8 5 2 0 0 0 0 0 0 0 0 0 0 0 0 3 6 9 12 15 18 21 24
27 30 33 36 39 42 45 48 51 54 57 60 63 66 69 72 75 78 81 84 87 90 93
96 100 96 93 90 87 84 81 78 75 72 69 66 63 60 57 54 51 48 45 42 39
36 33 30 27 24 21 18 15 12 9 6 3 0 0 0 0 0 0 0 0 0 0 0 0 0 0 0 0 0
0 0 0 0 0 0 0 0 0 0 0 0 0 0 0 0 0 0 0 0 0 0 0 0 0 0 0 0 4 8 13 17 21
26 30 34 39 43 47 52 56 60 65 69 73 78 82 86 91 95 100 95 91 86 82
78 73 69 65 60 56 52 47 43 39 34 30 26 21 17 13 8 4 0 0 0 0 0 0 0 0
0 0 0 0 0 0 0 0 0 0 0 0 0 0 0 0 0 0 0 0 0 0 0 0 0 0 0 0 0 0 0 0 0 0
0 0 0 0 0 0 0 0 0 0 0 0 0 0 0 0 0 0 0 0 0 0 0 0 0 0 0 0 0 0 0 0 0 0
3 7 10 14 17 21 25 28 32 35 39 42 46 50 53 3 6 9 12 16 19 22 25 29
32 35 38 41 45 48 51 54 58 61 64 67 70 74 77 80 83 87 90 93 96 100
96 93 90 87 83 80 77 74 70 67 64 61 58 54 51 48 45 41 38 35 32 29 25
22 19 16 12 9 6 3 0 0 0 0 0 0 0 0 0 0 0 0 0 0 0 0 0 0 0 0 0 0 0 0 0
0 0 0 0 0 0 0 0 0 0 0 0 0 0 0 0 0 0 0 0 0 0 0 0 0 0 0 0 0 0 0 0 0 0
0 0 0 0 0 0 0 0 0 0 0 0 0 0 0 0 0 0 0 0 0 0 0 0 0 0 0 0 0 0 0 0 0 0
0 0 0 0 0 0 0 0 4 9 14 19 23 28 33 38 42 47 52 57 61 66 71 76 80 85
90 95 100 95 90 85 80 76 71 66 61 57 52 47 42 38 33 28 23 19 14 9 4
0 0 0 0 0 0 0 0 0 0 0 0 0 0 0 0 0 0 0 0 0 0 0 0 0 0 0 0 0 0 0 0 0 0
0 0 4 9 13 18 22 27 31 36 40 45 50 54 59 63 68 72 77 81 86 90 95 100
95 90 86 81 77 72 68 63 59 54 50 45 40 36 31 27 22 18 13 9 4 0 0 0
0 0 0 0 0 0 0 0 0 0 0 0 0 0 0 0 0 0 0 0 3 7 11 15 19 23 26 30 34 38
42 46 50 53 57 61 65 69 73 76 80 84 88 92 96 100 96 92 88 84 80 76
73 69 65 61 57 53 50 46 42 38 34 30;
#A 1000 26 23 19 15 11 7 3 0 0 0 0 0 0 0 0 0 0 0 0 0 0 0 0 0;
#X coords 1 100 1023 1 800 200 1 0 0;
#X restore 108 22 graph;
#N canvas 299 514 450 300 glitches 0;
#X obj 108 140 outlet~;
#X restore 522 402 pd glitches;
#N canvas 957 74 452 678 dialnoise 1;
#X obj 94 17 inlet;
#X obj 140 559 outlet~;
#X obj 96 89 tabread allradios;
#X msg 180 209 open ./wavs/Effects/static1.wav;
#X obj 179 256 soundfiler;
#X obj 328 558 table static;
#X msg 180 233 read -resize \$1 static;
#X obj 182 393 phasor~;
#X obj 186 424 *~;
#X obj 185 461 tabread4~ static;
#X obj 123 259 unsig~;
#X floatatom 120 316 5 0 0 0 - - -;
#X obj 147 508 *~;
#X floatatom 34 119 5 0 0 0 - - gstrength;
#X floatatom 43 69 5 0 0 0 - - -;
#X obj 23 257 unsig~;
#X floatatom 23 308 5 0 0 0 - - -;
#X obj 79 215 line~;
#X obj 93 117 moses 15;
#X obj 79 161 bng 15 250 50 0 empty empty empty 17 7 0 10 -262144 -1
-1;
#X obj 145 144 bng 15 250 50 0 empty empty empty 17 7 0 10 -262144
-1 -1;
#X obj 240 324 f;
#X obj 255 287 expr 44100 / $f1;
#X obj 336 429 route 3;
#X obj 273 325 * 1.1;
#X obj 198 326 * 0.9;
#X floatatom 294 370 5 0 0 0 - - -;
#X floatatom 256 393 5 0 0 0 - - -;
#X obj 79 139 change;
#X obj 341 59 f;
#X obj 278 84 expr $f1 - $f2;
#X floatatom 301 138 5 0 0 0 - - -;
#X obj 313 24 t b f;
#X obj 231 137 edge;
#X obj 200 179 bng 15 250 50 0 empty empty empty 17 7 0 10 -262144
-1 -1;
#X obj 249 175 bng 15 250 50 0 empty empty empty 17 7 0 10 -262144
-1 -1;
#X msg 78 183 0.3 1000;
#X msg 138 167 0 2000;
#X connect 0 0 2 0;
#X connect 0 0 14 0;
#X connect 0 0 32 0;
#X connect 2 0 13 0;
#X connect 2 0 18 0;
#X connect 3 0 6 0;
#X connect 4 0 8 1;
#X connect 4 0 22 0;
#X connect 6 0 4 0;
#X connect 7 0 8 0;
#X connect 7 0 10 0;
#X connect 8 0 9 0;
#X connect 9 0 12 0;
#X connect 10 0 11 0;
#X connect 12 0 1 0;
#X connect 15 0 16 0;
#X connect 17 0 12 1;
#X connect 17 0 15 0;
#X connect 18 0 28 0;
#X connect 18 1 20 0;
#X connect 19 0 36 0;
#X connect 20 0 37 0;
#X connect 21 0 7 0;
#X connect 22 0 21 1;
#X connect 22 0 24 1;
#X connect 22 0 25 1;
#X connect 24 0 26 0;
#X connect 24 0 7 0;
#X connect 25 0 27 0;
#X connect 25 0 7 0;
#X connect 28 0 19 0;
#X connect 29 0 30 1;
#X connect 30 0 31 0;
#X connect 30 0 33 0;
#X connect 32 0 29 0;
#X connect 32 1 29 1;
#X connect 32 1 30 0;
#X connect 33 0 34 0;
#X connect 33 1 35 0;
#X connect 34 0 21 0;
#X connect 36 0 17 0;
#X connect 37 0 17 0;
#X restore 811 399 pd dialnoise;
#N canvas 0 22 450 278 (subpatch) 0;
#X coords 0 -1 1 1 400 200 1 0 0;
#X restore 504 308 graph;
#X text 533 322 Ye Olde DAC;
#X obj 126 399 tgl 25 1 plugged plugged Plugged_In 0 -10 0 10 -204786
-1 -258113 1 1;
#X obj 224 399 bng 25 250 50 0 percusive percusive Percusive 0 -10
0 10 -262130 -1 -258113;
#X obj 126 454 tgl 25 1 empty echomode Echo_Mode 0 -10 0 10 -204786
-1 -258113 0 1;
#X floatatom 171 249 5 0 0 0 Radio_Dial dial -;
#N canvas 0 22 450 278 (subpatch) 0;
#X coords 0 1 100 -1 200 140 1;
#X restore 102 366 graph;
#X obj 217 456 tgl 25 1 empty tuninglight Tuning_Light 0 -10 0 10 -262130
-1 -258113 0 1;
#X floatatom 283 250 5 0 0 0 strength gstrength -;
#X connect 0 0 5 0;
#X connect 2 0 5 0;
#X connect 3 0 6 0;
#X connect 7 0 0 0;
#X connect 7 0 10 0;
#X connect 9 0 5 0;
#X connect 10 0 5 0;
