#N canvas 197 66 1270 650 10;
#X floatatom 447 341 5 0 0 0 - - -;
#X msg 236 234 list ddd 2 bar;
#X msg 281 309;
#X obj 200 164 bng 15 250 50 0 empty empty empty 17 7 0 10 -262144
-1 -1;
#X obj 462 200 unpack 0 s s s;
#X symbolatom 568 397 10 0 0 0 - - -;
#X symbolatom 578 335 10 0 0 0 - - -;
#X obj 358 100 netreceive 3000 1;
#X msg 646 37 /src/timetravel_radio/2000s-rave/2-04_Taucher_-_Waters.ogg
;
#X obj 587 515 effects;
#X obj 700 466 dac~;
#X floatatom 748 467 8 0 0 0 - - -;
#X obj 709 398 oggread~;
#X msg 744 225 start;
#X msg 783 281 stop;
#X msg 791 342 resume;
#X msg 709 100 open myfile.ogg;
#X text 792 223 play file from beginning;
#X text 825 281 stop (pause) playing;
#X text 852 343 resume playing at current position;
#X text 825 466 position in file (seconds);
#X msg 799 305 0;
#X msg 768 250 1;
#X text 903 373 set new playing position (in seconds);
#X obj 768 430 bng 15 250 50 0 empty empty empty 0 -6 0 8 -262144 -1
-1;
#X text 794 430 bang at end of file;
#X obj 728 157 openpanel;
#X msg 728 184 open \$1;
#X obj 752 130 bng 15 250 50 0 empty empty empty 17 7 0 10 -262144
-1 -1;
#X msg 493 380 seek \$1;
#X obj 440 148 route 0 1 2;
#X obj 346 228 unpack 0 s s s;
#X floatatom 343 275 5 0 0 0 - - -;
#X msg 363 352;
#X symbolatom 383 305 10 0 0 0 - - -;
#X symbolatom 398 279 10 0 0 0 - - -;
#X connect 1 0 2 0;
#X connect 3 0 1 0;
#X connect 4 0 0 0;
#X connect 4 1 5 0;
#X connect 4 2 6 0;
#X connect 7 0 1 0;
#X connect 7 0 30 0;
#X connect 12 0 10 0;
#X connect 12 1 10 1;
#X connect 12 2 11 0;
#X connect 12 3 24 0;
#X connect 13 0 12 0;
#X connect 14 0 12 0;
#X connect 15 0 12 0;
#X connect 16 0 12 0;
#X connect 21 0 12 0;
#X connect 22 0 12 0;
#X connect 26 0 27 0;
#X connect 27 0 12 0;
#X connect 28 0 26 0;
#X connect 29 0 12 0;
#X connect 30 0 4 0;
#X connect 30 1 31 0;
#X connect 31 0 32 0;
#X connect 31 1 34 0;
#X connect 31 2 35 0;
