#N canvas 634 48 853 731 10;
#N canvas 115 155 782 572 songlist 1;
#X obj -32 210 msgfile;
#X msg -62 156 add \$1;
#X obj -84 51 inlet;
#X obj 231 41 inlet;
#X text -106 4 folder name;
#X text 184 13 bang for random;
#X obj -63 373 outlet;
#X text -1 369 track name;
#X obj 370 46 r length;
#X obj 233 74 bng 15 250 50 0 empty empty empty 17 7 0 10 -262144 -1
-1;
#X floatatom 171 150 5 0 0 0 - - -;
#X symbolatom -37 346 66 0 0 0 - - -;
#X msg -174 162 end \, where;
#X obj 231 221 s random;
#X obj 0 143 r random;
#X floatatom 383 111 5 0 0 0 - - -;
#X text 439 112 number of tracks;
#X obj -79 108 folder_list /*;
#X obj 350 73 + 1;
#X obj 277 150 tgl 15 0 empty empty empty 17 7 0 10 -262144 -1 -1 1
1;
#X msg -146 226 this;
#X obj 10 301 s length;
#X msg -121 124 clear;
#X obj -9 323 print length;
#X msg 88 58 seed 221;
#X obj 231 109 urn;
#X obj 4 253 route bang;
#X msg 296 77 4;
#X msg 276 114 clear \, bang;
#X msg 231 182 goto \$1 \, this;
#X obj -148 93 bng 15 250 50 0 empty empty empty 17 7 0 10 -262144
-1 -1;
#X connect 0 0 6 0;
#X connect 0 0 11 0;
#X connect 0 1 26 0;
#X connect 1 0 0 0;
#X connect 2 0 17 0;
#X connect 2 0 30 0;
#X connect 3 0 9 0;
#X connect 8 0 18 0;
#X connect 9 0 25 0;
#X connect 12 0 0 0;
#X connect 14 0 0 0;
#X connect 17 0 1 0;
#X connect 18 0 15 0;
#X connect 18 0 25 1;
#X connect 20 0 0 0;
#X connect 22 0 0 0;
#X connect 24 0 25 0;
#X connect 25 0 10 0;
#X connect 25 0 29 0;
#X connect 25 1 19 0;
#X connect 25 1 28 0;
#X connect 26 1 21 0;
#X connect 26 1 23 0;
#X connect 27 0 25 1;
#X connect 28 0 25 0;
#X connect 29 0 13 0;
#X connect 30 0 12 0;
#X restore 254 123 pd songlist;
#X obj 251 79 inlet;
#X obj 318 93 r loadnew;
#X symbolatom 258 167 77 0 0 0 - - -;
#X msg 24 39 symbol /Users/dfine/Music/radio/balkan/*.wav;
#X obj 318 301 readsf~;
#N canvas 567 244 720 527 table_old 1;
#X obj -5985 79 soundfiler;
#X obj -5948 150 s sampleSize;
#X obj -5943 320 r sampleSize;
#X obj -6046 411 tabread4~ channelL;
#X obj -6205 291 snapshot~;
#X obj -6205 266 metro 50;
#X obj -6207 247 tgl 15 0 empty empty empty 17 7 0 10 -262144 -1 -1
0 1;
#X obj -6200 384 hsl 128 15 0 1 0 0 empty empty empty -2 -8 0 10 -262144
-1 -1 0 1;
#X obj -5983 274 phasor~ 1;
#X obj -5986 188 expr 16000 / $f1;
#X floatatom -5986 233 9 0 0 0 - - -;
#X msg -5996 28 read -resize \$1 channelL;
#X obj -5884 252 hsl 128 15 0 1 0 0 empty empty empty -2 -8 0 10 -262144
-1 -1 0 1;
#X floatatom -6204 317 12 0 0 0 - - -;
#X obj -5994 348 *~;
#X msg -5967 308 0;
#X floatatom -5949 116 12 0 0 0 - - -;
#X obj -5899 82 bng 15 250 50 0 empty empty empty 17 7 0 10 -262144
-1 -1;
#X obj -6199 433 bng 15 250 50 0 empty empty empty 17 7 0 10 -262144
-1 -1;
#X obj -6200 455 s loadnew;
#X msg -5917 238 0;
#X obj -5880 208 r loadnew;
#X obj -6047 445 outlet~;
#X connect 0 0 9 0;
#X connect 0 0 16 0;
#X connect 2 0 14 1;
#X connect 3 0 22 0;
#X connect 4 0 13 0;
#X connect 5 0 4 0;
#X connect 6 0 5 0;
#X connect 8 0 4 0;
#X connect 8 0 14 0;
#X connect 9 0 10 0;
#X connect 10 0 8 0;
#X connect 11 0 0 0;
#X connect 12 0 8 1;
#X connect 13 0 7 0;
#X connect 14 0 3 0;
#X connect 15 0 14 1;
#X connect 16 0 1 0;
#X connect 17 0 16 0;
#X connect 18 0 19 0;
#X connect 20 0 8 1;
#X connect 20 0 8 0;
#X connect 21 0 20 0;
#X restore 463 649 pd table_old;
#X obj 433 69 inlet;
#X text 217 58 Initialization;
#X obj 360 340 bng 15 250 50 0 empty empty empty 17 7 0 10 -262144
-1 -1;
#X obj 365 367 s loadnew;
#X obj 333 435 dac~;
#X msg 265 216 symbol open \$1;
#X connect 0 0 3 0;
#X connect 1 0 0 0;
#X connect 2 0 0 1;
#X connect 3 0 12 0;
#X connect 4 0 0 0;
#X connect 5 0 11 0;
#X connect 5 0 11 1;
#X connect 5 1 9 0;
#X connect 9 0 10 0;
#X connect 12 0 5 0;
